<?xml version="1.0" standalone="no"?>
<!DOCTYPE svg PUBLIC "-//W3C//DTD SVG 20010904//EN"
        "http://www.w3.org/TR/2001/REC-SVG-20010904/DTD/svg10.dtd">
<svg version="1.0" xmlns="http://www.w3.org/2000/svg"
     width="888.000000pt" height="1280.000000pt" viewBox="0 0 888.000000 1280.000000"
     preserveAspectRatio="xMidYMid meet">
    <metadata>
        Created by potrace 1.15, written by Peter Selinger 2001-2017
    </metadata>
    <g transform="translate(0.000000,1280.000000) scale(0.100000,-0.100000)"
       fill="#000000" stroke="none">
        <path d="M2463 12781 c-360 -130 -794 -950 -1321 -2495 l-17 -50 -375 -53
c-206 -29 -385 -58 -398 -63 -12 -5 -27 -21 -32 -35 -5 -14 -37 -785 -70
-1713 -33 -928 -64 -1811 -70 -1962 -6 -151 -49 -1352 -96 -2669 -81 -2300
-84 -2395 -67 -2412 11 -10 89 -34 188 -58 94 -22 337 -81 540 -131 204 -50
489 -120 635 -156 264 -64 538 -132 1420 -348 256 -63 506 -124 555 -136 90
-22 556 -136 1534 -376 l513 -127 37 22 c20 11 794 435 1721 942 927 507 1693
930 1703 939 18 17 18 30 -7 431 -14 228 -62 1001 -106 1719 -44 718 -87 1413
-95 1545 -8 132 -24 389 -35 570 -11 182 -27 438 -35 570 -8 132 -42 681 -75
1220 -67 1099 -92 1498 -120 1953 -11 171 -20 319 -20 327 0 28 -38 55 -77 55
-51 0 -417 50 -425 58 -3 4 -49 99 -101 213 -462 1000 -863 1594 -1174 1736
-80 37 -170 42 -247 13 -147 -56 -311 -292 -465 -673 -82 -202 -214 -611 -292
-905 l-22 -84 -31 6 c-17 3 -198 28 -402 55 l-372 50 -341 -49 c-188 -28 -349
-50 -359 -50 -13 0 -35 43 -86 163 -238 561 -480 1030 -711 1377 -130 195
-208 292 -327 405 -183 174 -329 228 -475 176z m243 -120 c245 -130 554 -564
898 -1261 141 -285 344 -745 334 -755 -2 -3 -611 -92 -1352 -199 l-1347 -193
6 25 c3 14 39 121 80 236 365 1048 712 1762 996 2047 110 111 168 141 260 136
50 -3 80 -12 125 -36z m3865 -484 c204 -104 475 -456 771 -1002 134 -245 404
-802 395 -811 -2 -2 -419 52 -928 120 -508 68 -969 130 -1024 137 -55 6 -103
15 -107 18 -9 8 92 364 168 596 176 532 362 876 517 955 57 29 134 24 208 -13z
m-1033 -1622 c2 -2 -17 -91 -43 -197 -26 -106 -60 -251 -75 -321 -16 -71 -31
-131 -33 -133 -4 -4 -518 57 -526 62 -3 3 -50 621 -51 669 0 20 7 20 362 -28
200 -27 364 -50 366 -52z m-824 18 c11 -134 36 -596 32 -600 -3 -3 -334 -51
-1484 -213 l-643 -91 -162 31 c-300 57 -361 69 -527 100 -91 17 -185 35 -210
40 -25 5 -119 23 -210 40 -268 50 -362 69 -367 73 -2 3 10 48 27 100 29 92 32
96 63 102 18 3 627 91 1354 195 728 104 1340 192 1360 196 37 6 39 4 51 -30
18 -48 45 -63 78 -41 22 14 25 21 19 54 l-6 37 278 41 c153 22 292 41 309 42
l32 1 6 -77z m1263 -73 c700 -95 1787 -240 1798 -240 13 0 69 -114 57 -117
-11 -4 -388 -116 -859 -257 -232 -69 -435 -126 -450 -126 -44 0 -1017 122
-1025 129 -7 7 25 157 99 459 38 156 50 192 64 192 9 0 151 -18 316 -40z
m2048 -276 l50 -7 -35 -12 c-85 -30 -97 -29 -115 6 l-17 32 34 -6 c18 -3 55
-9 83 -13z m189 -214 c-34 -143 -37 -151 -58 -145 -11 3 -38 9 -58 12 -36 5
-38 8 -78 105 -23 55 -40 101 -38 103 5 5 263 82 266 80 2 -2 -13 -71 -34
-155z m-7124 118 c0 -2 -11 -37 -24 -78 -21 -66 -27 -75 -48 -74 -33 1 -447
81 -438 84 30 12 510 75 510 68z m6829 -175 l41 -97 -30 -28 c-58 -52 -85
-148 -60 -212 7 -19 6 -26 -3 -26 -6 0 -254 30 -551 67 -334 42 -532 70 -520
75 11 4 195 60 409 124 215 64 446 133 515 154 69 21 132 39 141 39 12 1 29
-28 58 -96z m-7413 18 c55 -11 173 -34 264 -51 91 -17 185 -35 210 -40 25 -5
119 -23 210 -40 91 -17 210 -39 265 -50 55 -10 174 -33 265 -50 91 -17 185
-35 210 -40 25 -5 118 -23 208 -40 479 -89 2553 -481 2623 -496 30 -6 30 -3
49 -334 6 -96 15 -245 20 -330 5 -85 23 -380 40 -655 17 -275 35 -570 40 -655
5 -85 23 -380 40 -655 17 -275 35 -570 40 -655 5 -85 30 -490 55 -900 25 -410
70 -1152 100 -1650 31 -498 78 -1272 105 -1720 28 -448 59 -965 71 -1148 11
-184 19 -337 17 -342 -2 -4 -145 27 -318 70 -389 96 -859 211 -1345 330 -362
89 -576 141 -1450 356 -236 58 -521 127 -633 155 -111 27 -293 71 -405 98
-111 28 -395 97 -631 155 -236 58 -436 106 -444 106 -13 0 -14 24 -8 188 4
103 42 1195 86 2427 44 1232 84 2368 90 2525 25 658 120 3363 120 3410 0 27 2
50 4 50 2 0 48 -9 102 -19z m7845 -976 c27 -451 58 -962 69 -1135 11 -173 42
-686 70 -1140 28 -454 59 -967 70 -1140 11 -173 28 -461 39 -640 11 -179 30
-473 41 -655 11 -181 43 -697 70 -1145 27 -448 55 -895 61 -993 8 -118 8 -182
1 -189 -5 -5 -756 -418 -1668 -918 -1242 -679 -1660 -903 -1661 -891 -2 9 -12
169 -23 356 -11 187 -29 482 -40 655 -11 173 -33 540 -50 815 -17 275 -39 642
-50 815 -11 173 -42 686 -70 1140 -28 454 -59 967 -70 1140 -11 173 -29 466
-40 650 -11 184 -29 481 -40 660 -54 874 -71 1157 -130 2115 -11 182 -25 406
-31 498 -6 92 -10 169 -8 171 13 8 362 107 366 103 4 -5 -14 -114 -48 -283 -9
-49 -12 -52 -45 -59 -44 -8 -111 -68 -135 -120 -10 -22 -19 -63 -19 -91 -1
-194 220 -294 369 -168 113 95 96 276 -34 359 -30 19 -44 33 -41 44 3 9 19 92
36 186 17 93 32 171 33 172 12 11 1161 346 1187 345 19 0 359 -42 755 -93 396
-50 750 -94 787 -96 65 -5 68 -4 79 21 7 14 16 26 21 26 15 0 66 90 73 129 3
21 1 59 -6 85 -9 37 -9 60 1 109 17 83 24 92 28 32 1 -27 25 -419 53 -870z
m-3256 844 c143 -18 263 -35 266 -38 12 -11 -75 -412 -91 -421 -8 -4 -109 -36
-225 -70 l-210 -62 -720 137 c-396 75 -825 156 -954 181 -129 24 -235 45 -237
47 -2 1 198 31 444 66 246 34 661 93 922 131 261 38 491 67 510 65 19 -2 152
-18 295 -36z m791 -99 c220 -28 402 -52 407 -53 8 -2 -873 -267 -890 -267 -6
0 2 59 23 162 41 202 43 208 53 208 5 0 188 -23 407 -50z m2248 25 c19 -14 18
-16 -5 -107 l-24 -93 -45 2 c-36 2 -50 8 -72 33 -34 37 -39 105 -10 140 l18
23 14 -32 c18 -44 45 -57 77 -36 20 14 24 23 21 51 -4 38 -2 40 26 19z m-2933
-1026 c8 -5 20 -9 27 -9 22 0 52 39 52 70 0 38 12 38 44 -1 47 -55 47 -126 0
-173 -71 -71 -186 -42 -214 53 -13 46 -2 87 33 124 l31 32 6 -43 c4 -24 13
-48 21 -53z"/>
    </g>
</svg>
